<svg xmlns="http://www.w3.org/2000/svg" viewBox="0 0 560 280" font-family="Manrope,system-ui,sans-serif">
<rect width="560" height="280" fill="#ffffff"/>
<text x="46" y="26" fill="#3c8446" font-size="12" font-weight="800" letter-spacing="1.5">BAY-HACK &#183; CONVERGENCE</text>
<text x="46" y="42" fill="#28372a" font-size="13" font-weight="800">World model recovers the optimum in 6 runs, vs ~26 for a grid sweep</text>
<line x1="46" y1="234.0" x2="514" y2="234.0" stroke="#e6efe8" stroke-width="1"/><text x="38" y="237.0" fill="#6f8274" font-size="10" text-anchor="end" font-family="monospace">0.00</text><line x1="46" y1="187.0" x2="514" y2="187.0" stroke="#e6efe8" stroke-width="1"/><text x="38" y="190.0" fill="#6f8274" font-size="10" text-anchor="end" font-family="monospace">0.25</text><line x1="46" y1="140.0" x2="514" y2="140.0" stroke="#e6efe8" stroke-width="1"/><text x="38" y="143.0" fill="#6f8274" font-size="10" text-anchor="end" font-family="monospace">0.50</text><line x1="46" y1="93.0" x2="514" y2="93.0" stroke="#e6efe8" stroke-width="1"/><text x="38" y="96.0" fill="#6f8274" font-size="10" text-anchor="end" font-family="monospace">0.75</text><line x1="46" y1="46.0" x2="514" y2="46.0" stroke="#e6efe8" stroke-width="1"/><text x="38" y="49.0" fill="#6f8274" font-size="10" text-anchor="end" font-family="monospace">1.00</text>
<line x1="46" y1="46.0" x2="514" y2="46.0" stroke="#9db8a0" stroke-dasharray="5 4" stroke-width="1.3"/>
<polyline points="46.0,234.0 139.6,187.5 233.2,88.6 326.8,88.6 420.4,60.0 514.0,59.0" fill="none" stroke="#5cae5a" stroke-width="2.6"/>
<circle cx="46.0" cy="234.0" r="3.6" fill="#c9d8f2" stroke="#2f6fd6" stroke-width="1"/><circle cx="139.6" cy="187.5" r="3.6" fill="#c9d8f2" stroke="#2f6fd6" stroke-width="1"/><circle cx="233.2" cy="88.6" r="3.6" fill="#c9d8f2" stroke="#2f6fd6" stroke-width="1"/><circle cx="326.8" cy="183.6" r="3.6" fill="#c9d8f2" stroke="#2f6fd6" stroke-width="1"/><circle cx="420.4" cy="60.0" r="3.6" fill="#c9d8f2" stroke="#2f6fd6" stroke-width="1"/><circle cx="514.0" cy="59.0" r="3.6" fill="#c9d8f2" stroke="#2f6fd6" stroke-width="1"/><circle cx="46.0" cy="234.0" r="3.4" fill="#3c8446"/><circle cx="139.6" cy="187.5" r="3.4" fill="#3c8446"/><circle cx="233.2" cy="88.6" r="3.4" fill="#3c8446"/><circle cx="326.8" cy="88.6" r="3.4" fill="#3c8446"/><circle cx="420.4" cy="60.0" r="3.4" fill="#3c8446"/><circle cx="514.0" cy="59.0" r="3.4" fill="#3c8446"/>
<text x="514" y="266" fill="#6f8274" font-size="10" text-anchor="end" font-family="monospace">round &#8594;</text>
<text x="46" y="266" fill="#3c8446" font-size="10" font-family="monospace" font-weight="600">best-so-far (line) &#183; proposed (dots)</text>
</svg>